# xmcd CD database file generated by OrangeCD 5.2
#
# Track frame offsets:
#	150
#	14825
#	28410
#	40657
#	58200
#	68731
#	89324
#	105700
#	121710
#	148425
#	166560
#	186322
#	200011
#	211700
#	228560
#	244220
#
# Disc length: 3484 seconds
#
# Revision: 0
# Processed by: cddbd v1.5.2PL0 Copyright (c) Steve Scherf et al.
# Submitted via: OrangeCD 5.2
#
DISCID=ea0d9a10
DTITLE=Jack Hannah - Songs of Faith
DYEAR=1900
DGENRE=Western
TTITLE0=Hallelujah
TTITLE1=I'm Steppin' High
TTITLE2=What A Friend
TTITLE3=There Shall Be Wars
TTITLE4=I've Made Up My Mind
TTITLE5=Thank You Lord
TTITLE6=Thy Will Be Done
TTITLE7=Even So, Come Quickly
TTITLE8=What Does It Profit A Man
TTITLE9=Listen You Can Hear It
TTITLE10=My Yoke is Easy
TTITLE11=Is It Any Wonder
TTITLE12=Old Time Religion
TTITLE13=Matthew 6:33
TTITLE14=In His Own Time
TTITLE15=His Stubborn Love (Bonus Track)
EXTD=
EXTT0=
EXTT1=
EXTT2=
EXTT3=
EXTT4=
EXTT5=
EXTT6=
EXTT7=
EXTT8=
EXTT9=
EXTT10=
EXTT11=
EXTT12=
EXTT13=
EXTT14=
EXTT15=
PLAYORDER=
